# xmcd CD database file
#
# Track frame offsets:
#	150
#	32863
#	58855
#	100156
#	128458
#	162770
#	173941
#	206376
#	231333
#	271972
#
# Disc length: 3723 seconds
#
# Revision: 0
# Processed by: cddbd v1.5.2PL0 Copyright (c) Steve Scherf et al.
# Submitted via: CDex 2.00
#
DISCID=830e890a
DTITLE=Matt Anderson Quartet - Rambling
DYEAR=2018
DGENRE=Jazz
TTITLE0=Jig, Jag, Jug
TTITLE1=Nordic Blues
TTITLE2=October Ending
TTITLE3=Count Up/Tune Down
TTITLE4=It's Later Than You Think
TTITLE5=The Long White Cloud (Interlude)
TTITLE6=Metaphorical Gardening
TTITLE7=The Ayes Have It
TTITLE8=Norrebro
TTITLE9=Jig, Jag, Jug (Reprise)
EXTD=YEAR: 2018
EXTT0=
EXTT1=
EXTT2=
EXTT3=
EXTT4=
EXTT5=
EXTT6=
EXTT7=
EXTT8=
EXTT9=
PLAYORDER=
